<svg xmlns="http://www.w3.org/2000/svg" xmlns:xlink="http://www.w3.org/1999/xlink" width="334" zoomAndPan="magnify" viewBox="0 0 250.5 250.500001" height="334" preserveAspectRatio="xMidYMid meet" version="1.0"><defs><clipPath id="c74da39d01"><path d="M 0 0 L 249.253906 0 L 249.253906 249.253906 L 0 249.253906 Z M 0 0 " clip-rule="nonzero"/></clipPath></defs><g clip-path="url(#c74da39d01)"><path fill="#545454" d="M 124.671875 0 C 122.632812 0 120.59375 0.0507812 118.554688 0.148438 C 116.519531 0.25 114.484375 0.398438 112.453125 0.601562 C 110.421875 0.800781 108.398438 1.050781 106.378906 1.347656 C 104.363281 1.648438 102.351562 1.996094 100.351562 2.394531 C 98.347656 2.792969 96.359375 3.242188 94.378906 3.734375 C 92.402344 4.230469 90.433594 4.777344 88.480469 5.367188 C 86.53125 5.960938 84.59375 6.601562 82.671875 7.289062 C 80.75 7.976562 78.847656 8.710938 76.960938 9.488281 C 75.078125 10.269531 73.214844 11.097656 71.367188 11.96875 C 69.523438 12.84375 67.703125 13.757812 65.902344 14.722656 C 64.101562 15.683594 62.328125 16.6875 60.578125 17.738281 C 58.828125 18.785156 57.105469 19.878906 55.410156 21.011719 C 53.710938 22.144531 52.042969 23.320312 50.40625 24.535156 C 48.765625 25.75 47.160156 27.003906 45.582031 28.300781 C 44.003906 29.59375 42.460938 30.925781 40.949219 32.296875 C 39.4375 33.667969 37.957031 35.074219 36.515625 36.515625 C 35.074219 37.957031 33.667969 39.4375 32.296875 40.949219 C 30.925781 42.460938 29.59375 44.003906 28.300781 45.582031 C 27.003906 47.160156 25.75 48.765625 24.535156 50.40625 C 23.320312 52.042969 22.144531 53.710938 21.011719 55.410156 C 19.878906 57.105469 18.785156 58.828125 17.738281 60.578125 C 16.6875 62.328125 15.683594 64.101562 14.722656 65.902344 C 13.757812 67.703125 12.84375 69.523438 11.96875 71.367188 C 11.097656 73.214844 10.269531 75.078125 9.488281 76.960938 C 8.710938 78.847656 7.976562 80.75 7.289062 82.671875 C 6.601562 84.59375 5.960938 86.53125 5.367188 88.480469 C 4.777344 90.433594 4.230469 92.402344 3.734375 94.378906 C 3.242188 96.359375 2.792969 98.347656 2.394531 100.351562 C 1.996094 102.351562 1.648438 104.363281 1.347656 106.378906 C 1.050781 108.398438 0.800781 110.421875 0.601562 112.453125 C 0.398438 114.484375 0.25 116.519531 0.148438 118.554688 C 0.0507812 120.59375 0 122.632812 0 124.671875 C 0 126.714844 0.0507812 128.753906 0.148438 130.789062 C 0.25 132.828125 0.398438 134.863281 0.601562 136.894531 C 0.800781 138.921875 1.050781 140.949219 1.347656 142.964844 C 1.648438 144.984375 1.996094 146.996094 2.394531 148.996094 C 2.792969 150.996094 3.242188 152.988281 3.734375 154.964844 C 4.230469 156.945312 4.777344 158.910156 5.367188 160.863281 C 5.960938 162.816406 6.601562 164.753906 7.289062 166.675781 C 7.976562 168.59375 8.710938 170.5 9.488281 172.382812 C 10.269531 174.269531 11.097656 176.132812 11.96875 177.976562 C 12.84375 179.820312 13.757812 181.644531 14.722656 183.445312 C 15.683594 185.242188 16.6875 187.019531 17.738281 188.769531 C 18.785156 190.519531 19.878906 192.242188 21.011719 193.9375 C 22.144531 195.632812 23.320312 197.300781 24.535156 198.941406 C 25.75 200.578125 27.003906 202.1875 28.300781 203.765625 C 29.59375 205.34375 30.925781 206.886719 32.296875 208.398438 C 33.667969 209.910156 35.074219 211.386719 36.515625 212.832031 C 37.957031 214.273438 39.4375 215.679688 40.949219 217.050781 C 42.460938 218.417969 44.003906 219.753906 45.582031 221.046875 C 47.160156 222.339844 48.765625 223.597656 50.40625 224.8125 C 52.042969 226.027344 53.710938 227.203125 55.410156 228.335938 C 57.105469 229.46875 58.828125 230.558594 60.578125 231.609375 C 62.328125 232.65625 64.101562 233.664062 65.902344 234.625 C 67.703125 235.585938 69.523438 236.503906 71.367188 237.375 C 73.214844 238.25 75.078125 239.074219 76.960938 239.855469 C 78.847656 240.636719 80.75 241.371094 82.671875 242.058594 C 84.59375 242.746094 86.53125 243.386719 88.480469 243.976562 C 90.433594 244.570312 92.402344 245.113281 94.378906 245.609375 C 96.359375 246.105469 98.347656 246.550781 100.351562 246.949219 C 102.351562 247.347656 104.363281 247.695312 106.378906 247.996094 C 108.398438 248.296875 110.421875 248.546875 112.453125 248.746094 C 114.484375 248.945312 116.519531 249.097656 118.554688 249.195312 C 120.59375 249.296875 122.632812 249.347656 124.671875 249.347656 C 126.714844 249.347656 128.753906 249.296875 130.789062 249.195312 C 132.828125 249.097656 134.863281 248.945312 136.894531 248.746094 C 138.921875 248.546875 140.949219 248.296875 142.964844 247.996094 C 144.984375 247.695312 146.996094 247.347656 148.996094 246.949219 C 150.996094 246.550781 152.988281 246.105469 154.964844 245.609375 C 156.945312 245.113281 158.910156 244.570312 160.863281 243.976562 C 162.816406 243.386719 164.753906 242.746094 166.675781 242.058594 C 168.59375 241.371094 170.5 240.636719 172.382812 239.855469 C 174.269531 239.074219 176.132812 238.25 177.976562 237.375 C 179.820312 236.503906 181.644531 235.585938 183.445312 234.625 C 185.242188 233.664062 187.019531 232.65625 188.769531 231.609375 C 190.519531 230.558594 192.242188 229.46875 193.9375 228.335938 C 195.632812 227.203125 197.300781 226.027344 198.941406 224.8125 C 200.578125 223.597656 202.1875 222.339844 203.765625 221.046875 C 205.34375 219.753906 206.886719 218.417969 208.398438 217.050781 C 209.910156 215.679688 211.386719 214.273438 212.832031 212.832031 C 214.273438 211.386719 215.679688 209.910156 217.050781 208.398438 C 218.417969 206.886719 219.753906 205.34375 221.046875 203.765625 C 222.339844 202.1875 223.597656 200.578125 224.8125 198.941406 C 226.027344 197.300781 227.203125 195.632812 228.335938 193.9375 C 229.46875 192.242188 230.558594 190.519531 231.609375 188.769531 C 232.65625 187.019531 233.664062 185.242188 234.625 183.445312 C 235.585938 181.644531 236.503906 179.820312 237.375 177.976562 C 238.25 176.132812 239.074219 174.269531 239.855469 172.382812 C 240.636719 170.5 241.371094 168.59375 242.058594 166.675781 C 242.746094 164.753906 243.386719 162.816406 243.976562 160.863281 C 244.570312 158.910156 245.113281 156.945312 245.609375 154.964844 C 246.105469 152.988281 246.550781 150.996094 246.949219 148.996094 C 247.347656 146.996094 247.695312 144.984375 247.996094 142.964844 C 248.296875 140.949219 248.546875 138.921875 248.746094 136.894531 C 248.945312 134.863281 249.097656 132.828125 249.195312 130.789062 C 249.296875 128.753906 249.347656 126.714844 249.347656 124.671875 C 249.347656 122.632812 249.296875 120.59375 249.195312 118.554688 C 249.09375 116.519531 248.945312 114.484375 248.746094 112.453125 C 248.542969 110.421875 248.292969 108.398438 247.996094 106.378906 C 247.695312 104.363281 247.347656 102.351562 246.949219 100.351562 C 246.550781 98.351562 246.101562 96.359375 245.605469 94.382812 C 245.109375 92.402344 244.566406 90.4375 243.972656 88.484375 C 243.382812 86.53125 242.742188 84.59375 242.054688 82.675781 C 241.367188 80.753906 240.632812 78.851562 239.851562 76.964844 C 239.070312 75.082031 238.242188 73.214844 237.371094 71.371094 C 236.5 69.527344 235.582031 67.703125 234.621094 65.90625 C 233.660156 64.105469 232.652344 62.332031 231.605469 60.582031 C 230.554688 58.832031 229.464844 57.109375 228.328125 55.410156 C 227.195312 53.714844 226.023438 52.046875 224.804688 50.410156 C 223.589844 48.769531 222.335938 47.164062 221.042969 45.585938 C 219.746094 44.007812 218.414062 42.464844 217.046875 40.953125 C 215.675781 39.441406 214.269531 37.964844 212.824219 36.519531 C 211.382812 35.078125 209.90625 33.671875 208.394531 32.300781 C 206.882812 30.929688 205.335938 29.597656 203.761719 28.304688 C 202.183594 27.011719 200.574219 25.753906 198.9375 24.539062 C 197.296875 23.324219 195.628906 22.148438 193.933594 21.015625 C 192.238281 19.882812 190.515625 18.792969 188.765625 17.742188 C 187.015625 16.691406 185.238281 15.6875 183.441406 14.726562 C 181.640625 13.765625 179.820312 12.847656 177.976562 11.972656 C 176.128906 11.101562 174.265625 10.273438 172.382812 9.496094 C 170.496094 8.714844 168.59375 7.980469 166.671875 7.292969 C 164.75 6.605469 162.8125 5.964844 160.863281 5.371094 C 158.910156 4.78125 156.945312 4.234375 154.964844 3.738281 C 152.984375 3.242188 150.996094 2.796875 148.996094 2.398438 C 146.992188 2 144.984375 1.652344 142.964844 1.351562 C 140.949219 1.050781 138.921875 0.800781 136.894531 0.601562 C 134.863281 0.402344 132.828125 0.25 130.789062 0.152344 C 128.753906 0.0507812 126.714844 0 124.671875 0 Z M 202.242188 104.84375 C 202.023438 105.546875 201.699219 106.199219 201.269531 106.800781 C 200.84375 107.402344 200.328125 107.921875 199.730469 108.355469 C 199.136719 108.789062 198.484375 109.121094 197.78125 109.347656 C 197.078125 109.570312 196.359375 109.679688 195.621094 109.671875 L 188.683594 109.671875 L 188.683594 179.761719 C 188.683594 180.457031 188.648438 181.152344 188.582031 181.84375 C 188.511719 182.535156 188.410156 183.222656 188.273438 183.902344 C 188.136719 184.585938 187.96875 185.257812 187.765625 185.925781 C 187.5625 186.589844 187.328125 187.242188 187.0625 187.886719 C 186.796875 188.527344 186.5 189.15625 186.171875 189.765625 C 185.84375 190.378906 185.484375 190.976562 185.097656 191.554688 C 184.710938 192.132812 184.296875 192.6875 183.859375 193.226562 C 183.417969 193.765625 182.949219 194.277344 182.457031 194.769531 C 181.96875 195.261719 181.453125 195.726562 180.914062 196.167969 C 180.378906 196.609375 179.820312 197.023438 179.242188 197.410156 C 178.664062 197.796875 178.070312 198.152344 177.457031 198.480469 C 176.84375 198.808594 176.214844 199.105469 175.574219 199.375 C 174.929688 199.640625 174.277344 199.875 173.613281 200.078125 C 172.949219 200.277344 172.273438 200.449219 171.59375 200.585938 C 170.910156 200.71875 170.222656 200.824219 169.53125 200.890625 C 168.839844 200.960938 168.148438 200.996094 167.453125 200.996094 L 146.53125 200.996094 C 146.261719 200.996094 145.992188 200.964844 145.730469 200.910156 C 145.464844 200.855469 145.207031 200.777344 144.960938 200.671875 C 144.710938 200.566406 144.476562 200.441406 144.253906 200.289062 C 144.027344 200.136719 143.824219 199.964844 143.632812 199.773438 C 143.441406 199.582031 143.273438 199.375 143.125 199.148438 C 142.976562 198.925781 142.851562 198.6875 142.746094 198.4375 C 142.644531 198.1875 142.566406 197.933594 142.515625 197.667969 C 142.464844 197.402344 142.4375 197.136719 142.4375 196.867188 L 142.4375 160.203125 C 142.4375 159.578125 142.375 158.957031 142.253906 158.34375 C 142.128906 157.730469 141.949219 157.132812 141.707031 156.554688 C 141.46875 155.976562 141.171875 155.425781 140.824219 154.90625 C 140.476562 154.382812 140.082031 153.902344 139.636719 153.460938 C 139.195312 153.015625 138.714844 152.621094 138.191406 152.273438 C 137.671875 151.925781 137.121094 151.628906 136.542969 151.390625 C 135.964844 151.148438 135.367188 150.96875 134.753906 150.84375 C 134.140625 150.722656 133.519531 150.660156 132.894531 150.660156 L 116.453125 150.660156 C 115.824219 150.660156 115.207031 150.722656 114.589844 150.84375 C 113.976562 150.96875 113.378906 151.148438 112.800781 151.390625 C 112.222656 151.628906 111.671875 151.925781 111.152344 152.273438 C 110.632812 152.621094 110.148438 153.015625 109.707031 153.460938 C 109.265625 153.902344 108.867188 154.382812 108.519531 154.90625 C 108.171875 155.425781 107.878906 155.976562 107.636719 156.554688 C 107.398438 157.132812 107.214844 157.730469 107.09375 158.34375 C 106.96875 158.957031 106.90625 159.578125 106.90625 160.203125 L 106.90625 196.867188 C 106.90625 197.136719 106.882812 197.402344 106.828125 197.667969 C 106.777344 197.933594 106.699219 198.1875 106.597656 198.4375 C 106.496094 198.6875 106.371094 198.925781 106.222656 199.148438 C 106.070312 199.375 105.902344 199.582031 105.714844 199.773438 C 105.523438 199.964844 105.316406 200.136719 105.09375 200.289062 C 104.871094 200.441406 104.632812 200.566406 104.386719 200.671875 C 104.136719 200.777344 103.882812 200.855469 103.617188 200.910156 C 103.351562 200.964844 103.085938 200.996094 102.816406 200.996094 L 81.894531 200.996094 C 81.199219 200.996094 80.507812 200.960938 79.8125 200.890625 C 79.121094 200.824219 78.4375 200.71875 77.753906 200.585938 C 77.070312 200.449219 76.398438 200.277344 75.734375 200.078125 C 75.070312 199.875 74.414062 199.640625 73.773438 199.375 C 73.128906 199.105469 72.503906 198.808594 71.890625 198.480469 C 71.277344 198.152344 70.683594 197.796875 70.105469 197.410156 C 69.527344 197.023438 68.96875 196.609375 68.429688 196.167969 C 67.894531 195.726562 67.378906 195.261719 66.886719 194.769531 C 66.394531 194.277344 65.929688 193.765625 65.488281 193.226562 C 65.046875 192.6875 64.632812 192.132812 64.246094 191.554688 C 63.859375 190.976562 63.503906 190.378906 63.175781 189.765625 C 62.847656 189.15625 62.550781 188.527344 62.285156 187.882812 C 62.019531 187.242188 61.785156 186.589844 61.582031 185.925781 C 61.378906 185.257812 61.210938 184.585938 61.074219 183.902344 C 60.9375 183.222656 60.835938 182.535156 60.765625 181.84375 C 60.695312 181.152344 60.660156 180.457031 60.660156 179.761719 L 60.660156 109.671875 L 53.726562 109.671875 C 52.992188 109.675781 52.273438 109.5625 51.574219 109.335938 C 50.875 109.109375 50.226562 108.777344 49.632812 108.34375 C 49.039062 107.914062 48.523438 107.398438 48.09375 106.804688 C 47.664062 106.207031 47.332031 105.558594 47.109375 104.859375 C 46.882812 104.160156 46.773438 103.441406 46.773438 102.707031 C 46.777344 101.972656 46.894531 101.253906 47.125 100.554688 C 47.355469 99.859375 47.6875 99.210938 48.125 98.621094 C 48.558594 98.027344 49.078125 97.515625 49.675781 97.089844 L 112.363281 52.324219 C 113.253906 51.6875 114.191406 51.121094 115.171875 50.628906 C 116.152344 50.136719 117.164062 49.722656 118.207031 49.390625 C 119.253906 49.054688 120.316406 48.800781 121.402344 48.632812 C 122.484375 48.464844 123.574219 48.378906 124.671875 48.378906 C 125.769531 48.378906 126.859375 48.464844 127.945312 48.632812 C 129.027344 48.800781 130.09375 49.054688 131.136719 49.390625 C 132.179688 49.722656 133.195312 50.136719 134.175781 50.628906 C 135.15625 51.121094 136.089844 51.6875 136.984375 52.324219 L 199.671875 97.089844 C 200.269531 97.515625 200.789062 98.023438 201.226562 98.613281 C 201.664062 99.203125 201.996094 99.847656 202.230469 100.542969 C 202.460938 101.242188 202.578125 101.957031 202.578125 102.691406 C 202.582031 103.425781 202.46875 104.144531 202.242188 104.84375 Z M 202.242188 104.84375 " fill-opacity="1" fill-rule="nonzero"/></g><path stroke-linecap="butt" transform="matrix(0.748506, 0, 0, 0.748506, 58.618966, 109.813229)" fill="none" stroke-linejoin="miter" d="M -0.00237664 1.997799 L 176.500271 1.997799 " stroke="#545454" stroke-width="4" stroke-opacity="1" stroke-miterlimit="4"/></svg>