<svg xmlns="http://www.w3.org/2000/svg" xmlns:xlink="http://www.w3.org/1999/xlink" width="296" zoomAndPan="magnify" viewBox="0 0 222 221.999995" height="296" preserveAspectRatio="xMidYMid meet" version="1.0"><defs><clipPath id="70ef3f780d"><path d="M 0 0 L 221.46875 0 L 221.46875 221.46875 L 0 221.46875 Z M 0 0 " clip-rule="nonzero"/></clipPath></defs><path stroke-linecap="butt" transform="matrix(1.103172, 0.0959632, -0.0959632, 1.103172, 147.82716, 69.274961)" fill="none" stroke-linejoin="miter" d="M -0.00131111 2.498627 L 33.91745 2.501218 " stroke="#545454" stroke-width="5" stroke-opacity="1" stroke-miterlimit="4"/><g clip-path="url(#70ef3f780d)"><path fill="#545454" d="M 110.734375 0 C 108.921875 0 107.109375 0.0429688 105.300781 0.132812 C 103.492188 0.222656 101.683594 0.355469 99.878906 0.535156 C 98.078125 0.710938 96.277344 0.933594 94.484375 1.199219 C 92.691406 1.464844 90.90625 1.773438 89.128906 2.128906 C 87.351562 2.480469 85.585938 2.878906 83.828125 3.320312 C 82.070312 3.757812 80.324219 4.242188 78.589844 4.769531 C 76.855469 5.292969 75.136719 5.863281 73.429688 6.472656 C 71.722656 7.082031 70.03125 7.734375 68.359375 8.429688 C 66.683594 9.121094 65.027344 9.855469 63.390625 10.632812 C 61.75 11.40625 60.132812 12.222656 58.535156 13.074219 C 56.9375 13.929688 55.359375 14.824219 53.804688 15.753906 C 52.25 16.6875 50.71875 17.65625 49.214844 18.660156 C 47.707031 19.667969 46.226562 20.710938 44.769531 21.792969 C 43.3125 22.871094 41.886719 23.984375 40.484375 25.136719 C 39.085938 26.285156 37.710938 27.46875 36.371094 28.683594 C 35.027344 29.902344 33.714844 31.152344 32.433594 32.433594 C 31.152344 33.714844 29.902344 35.027344 28.683594 36.371094 C 27.46875 37.710938 26.285156 39.085938 25.136719 40.484375 C 23.984375 41.886719 22.871094 43.3125 21.792969 44.769531 C 20.710938 46.226562 19.667969 47.707031 18.660156 49.214844 C 17.65625 50.71875 16.6875 52.25 15.753906 53.804688 C 14.824219 55.359375 13.929688 56.9375 13.074219 58.535156 C 12.222656 60.132812 11.40625 61.75 10.632812 63.390625 C 9.855469 65.027344 9.121094 66.683594 8.429688 68.359375 C 7.734375 70.03125 7.082031 71.722656 6.472656 73.429688 C 5.863281 75.136719 5.292969 76.855469 4.769531 78.589844 C 4.242188 80.324219 3.757812 82.070312 3.320312 83.828125 C 2.878906 85.585938 2.480469 87.351562 2.128906 89.128906 C 1.773438 90.90625 1.464844 92.691406 1.199219 94.484375 C 0.933594 96.277344 0.710938 98.078125 0.535156 99.878906 C 0.355469 101.683594 0.222656 103.492188 0.132812 105.300781 C 0.0429688 107.109375 0 108.921875 0 110.734375 C 0 112.546875 0.0429688 114.355469 0.132812 116.167969 C 0.222656 117.976562 0.355469 119.785156 0.535156 121.585938 C 0.710938 123.390625 0.933594 125.1875 1.199219 126.980469 C 1.464844 128.773438 1.773438 130.558594 2.128906 132.335938 C 2.480469 134.113281 2.878906 135.882812 3.320312 137.640625 C 3.757812 139.398438 4.242188 141.144531 4.769531 142.878906 C 5.292969 144.613281 5.863281 146.332031 6.472656 148.039062 C 7.082031 149.746094 7.734375 151.433594 8.429688 153.109375 C 9.121094 154.785156 9.855469 156.441406 10.632812 158.078125 C 11.40625 159.714844 12.222656 161.335938 13.074219 162.933594 C 13.929688 164.53125 14.824219 166.109375 15.753906 167.664062 C 16.6875 169.214844 17.65625 170.746094 18.660156 172.253906 C 19.667969 173.761719 20.710938 175.242188 21.792969 176.699219 C 22.871094 178.152344 23.984375 179.582031 25.136719 180.984375 C 26.285156 182.382812 27.46875 183.753906 28.683594 185.097656 C 29.902344 186.441406 31.152344 187.753906 32.433594 189.035156 C 33.714844 190.316406 35.027344 191.566406 36.371094 192.78125 C 37.710938 194 39.085938 195.183594 40.484375 196.332031 C 41.886719 197.480469 43.3125 198.597656 44.769531 199.675781 C 46.226562 200.753906 47.707031 201.796875 49.214844 202.804688 C 50.71875 203.8125 52.25 204.78125 53.804688 205.714844 C 55.359375 206.644531 56.9375 207.539062 58.535156 208.390625 C 60.132812 209.246094 61.75 210.0625 63.390625 210.835938 C 65.027344 211.609375 66.683594 212.34375 68.359375 213.039062 C 70.03125 213.730469 71.722656 214.382812 73.429688 214.996094 C 75.136719 215.605469 76.855469 216.171875 78.589844 216.699219 C 80.324219 217.226562 82.070312 217.707031 83.828125 218.148438 C 85.585938 218.589844 87.351562 218.984375 89.128906 219.339844 C 90.90625 219.691406 92.691406 220.003906 94.484375 220.269531 C 96.277344 220.535156 98.078125 220.757812 99.878906 220.933594 C 101.683594 221.113281 103.492188 221.246094 105.300781 221.335938 C 107.109375 221.421875 108.921875 221.46875 110.734375 221.46875 C 112.546875 221.46875 114.355469 221.421875 116.167969 221.335938 C 117.976562 221.246094 119.785156 221.113281 121.585938 220.933594 C 123.390625 220.757812 125.1875 220.535156 126.980469 220.269531 C 128.773438 220.003906 130.558594 219.691406 132.335938 219.339844 C 134.113281 218.984375 135.882812 218.589844 137.640625 218.148438 C 139.398438 217.707031 141.144531 217.226562 142.878906 216.699219 C 144.613281 216.171875 146.332031 215.605469 148.039062 214.996094 C 149.746094 214.382812 151.433594 213.730469 153.109375 213.039062 C 154.785156 212.34375 156.441406 211.609375 158.078125 210.835938 C 159.714844 210.0625 161.335938 209.246094 162.933594 208.390625 C 164.53125 207.539062 166.109375 206.644531 167.664062 205.714844 C 169.214844 204.78125 170.746094 203.8125 172.253906 202.804688 C 173.761719 201.796875 175.242188 200.753906 176.699219 199.675781 C 178.152344 198.597656 179.582031 197.480469 180.984375 196.332031 C 182.382812 195.183594 183.753906 194 185.097656 192.78125 C 186.441406 191.566406 187.753906 190.316406 189.035156 189.035156 C 190.316406 187.753906 191.566406 186.441406 192.78125 185.097656 C 194 183.753906 195.183594 182.382812 196.332031 180.984375 C 197.480469 179.582031 198.597656 178.152344 199.675781 176.699219 C 200.753906 175.242188 201.796875 173.761719 202.804688 172.253906 C 203.8125 170.746094 204.78125 169.214844 205.714844 167.664062 C 206.644531 166.109375 207.539062 164.53125 208.390625 162.933594 C 209.246094 161.335938 210.0625 159.714844 210.835938 158.078125 C 211.609375 156.441406 212.34375 154.785156 213.039062 153.109375 C 213.730469 151.433594 214.382812 149.746094 214.996094 148.039062 C 215.605469 146.332031 216.171875 144.613281 216.699219 142.878906 C 217.226562 141.144531 217.707031 139.398438 218.148438 137.640625 C 218.589844 135.882812 218.984375 134.113281 219.339844 132.335938 C 219.691406 130.558594 220.003906 128.773438 220.269531 126.980469 C 220.535156 125.1875 220.757812 123.390625 220.933594 121.585938 C 221.113281 119.785156 221.246094 117.976562 221.335938 116.167969 C 221.421875 114.355469 221.46875 112.546875 221.46875 110.734375 C 221.46875 108.921875 221.421875 107.109375 221.332031 105.300781 C 221.246094 103.492188 221.109375 101.683594 220.933594 99.878906 C 220.753906 98.078125 220.535156 96.277344 220.265625 94.488281 C 220 92.695312 219.691406 90.910156 219.335938 89.132812 C 218.984375 87.355469 218.585938 85.585938 218.144531 83.828125 C 217.707031 82.070312 217.222656 80.324219 216.695312 78.589844 C 216.171875 76.855469 215.601562 75.136719 214.992188 73.429688 C 214.378906 71.722656 213.726562 70.035156 213.035156 68.359375 C 212.339844 66.6875 211.605469 65.03125 210.832031 63.390625 C 210.058594 61.753906 209.242188 60.136719 208.386719 58.535156 C 207.535156 56.9375 206.640625 55.363281 205.710938 53.808594 C 204.777344 52.253906 203.808594 50.722656 202.800781 49.214844 C 201.792969 47.710938 200.75 46.230469 199.671875 44.773438 C 198.59375 43.316406 197.476562 41.890625 196.328125 40.488281 C 195.179688 39.089844 193.996094 37.714844 192.777344 36.375 C 191.5625 35.03125 190.3125 33.71875 189.03125 32.4375 C 187.75 31.15625 186.4375 29.90625 185.09375 28.691406 C 183.75 27.472656 182.378906 26.289062 180.980469 25.140625 C 179.578125 23.988281 178.148438 22.875 176.695312 21.796875 C 175.238281 20.714844 173.757812 19.671875 172.25 18.667969 C 170.742188 17.660156 169.214844 16.691406 167.660156 15.757812 C 166.105469 14.828125 164.527344 13.933594 162.929688 13.078125 C 161.332031 12.226562 159.714844 11.410156 158.074219 10.636719 C 156.4375 9.859375 154.78125 9.125 153.109375 8.433594 C 151.433594 7.738281 149.742188 7.085938 148.035156 6.476562 C 146.332031 5.867188 144.609375 5.296875 142.875 4.769531 C 141.140625 4.246094 139.394531 3.761719 137.636719 3.320312 C 135.878906 2.878906 134.113281 2.484375 132.335938 2.128906 C 130.558594 1.777344 128.773438 1.464844 126.980469 1.199219 C 125.1875 0.933594 123.390625 0.710938 121.585938 0.535156 C 119.785156 0.355469 117.976562 0.222656 116.167969 0.132812 C 114.355469 0.0429688 112.546875 0 110.734375 0 Z M 155.582031 175.582031 L 127.308594 147.308594 C 126.761719 146.757812 126.257812 146.164062 125.808594 145.53125 C 125.355469 144.898438 124.957031 144.230469 124.617188 143.53125 C 124.273438 142.832031 123.988281 142.109375 123.765625 141.363281 C 123.542969 140.617188 123.378906 139.859375 123.28125 139.085938 C 123.179688 138.316406 123.144531 137.539062 123.171875 136.761719 C 123.199219 135.984375 123.292969 135.214844 123.445312 134.449219 C 123.601562 133.6875 123.816406 132.941406 124.09375 132.214844 C 124.367188 131.484375 124.703125 130.785156 125.09375 130.113281 L 117.34375 122.359375 C 115.289062 124.132812 113.09375 125.707031 110.761719 127.085938 C 108.425781 128.464844 105.984375 129.625 103.441406 130.570312 C 100.898438 131.511719 98.292969 132.21875 95.621094 132.695312 C 92.953125 133.171875 90.261719 133.40625 87.550781 133.398438 C 86.042969 133.398438 84.539062 133.324219 83.039062 133.175781 C 81.542969 133.027344 80.054688 132.808594 78.574219 132.511719 C 77.097656 132.21875 75.636719 131.851562 74.195312 131.417969 C 72.753906 130.980469 71.339844 130.472656 69.945312 129.894531 C 68.554688 129.320312 67.195312 128.675781 65.867188 127.964844 C 64.539062 127.253906 63.246094 126.480469 61.996094 125.644531 C 60.742188 124.808594 59.53125 123.914062 58.367188 122.957031 C 57.203125 122 56.085938 120.992188 55.023438 119.925781 C 53.957031 118.863281 52.945312 117.746094 51.988281 116.582031 C 51.035156 115.417969 50.136719 114.210938 49.296875 112.960938 C 48.460938 111.707031 47.6875 110.417969 46.976562 109.089844 C 46.265625 107.761719 45.621094 106.402344 45.042969 105.011719 C 44.464844 103.617188 43.957031 102.203125 43.519531 100.761719 C 43.082031 99.320312 42.714844 97.859375 42.417969 96.382812 C 42.121094 94.90625 41.902344 93.417969 41.75 91.917969 C 41.601562 90.417969 41.527344 88.917969 41.523438 87.410156 C 44.050781 26.367188 131.046875 26.402344 133.539062 87.410156 C 133.542969 90.125 133.304688 92.816406 132.828125 95.492188 C 132.351562 98.164062 131.640625 100.773438 130.699219 103.316406 C 129.757812 105.863281 128.597656 108.304688 127.222656 110.644531 C 125.84375 112.984375 124.269531 115.179688 122.5 117.238281 L 130.214844 124.957031 C 130.890625 124.5625 131.59375 124.230469 132.324219 123.953125 C 133.054688 123.675781 133.800781 123.460938 134.566406 123.308594 C 135.332031 123.152344 136.105469 123.0625 136.882812 123.039062 C 137.664062 123.011719 138.441406 123.046875 139.214844 123.148438 C 139.988281 123.25 140.75 123.414062 141.496094 123.640625 C 142.242188 123.867188 142.96875 124.152344 143.667969 124.496094 C 144.367188 124.839844 145.035156 125.242188 145.667969 125.695312 C 146.304688 126.148438 146.898438 126.652344 147.449219 127.207031 L 175.6875 155.441406 C 188.628906 169.144531 169.214844 188.488281 155.582031 175.582031 Z M 155.582031 175.582031 " fill-opacity="1" fill-rule="nonzero"/></g></svg>